<?xml version="1.0" standalone="no"?>
<!DOCTYPE svg PUBLIC "-//W3C//DTD SVG 20010904//EN"
 "http://www.w3.org/TR/2001/REC-SVG-20010904/DTD/svg10.dtd">
<svg version="1.0" xmlns="http://www.w3.org/2000/svg"
 width="700.000000pt" height="700.000000pt" viewBox="0 0 700.000000 700.000000"
 preserveAspectRatio="xMidYMid meet">
<metadata>
Created by potrace 1.14, written by Peter Selinger 2001-2017
</metadata>
<g transform="translate(0.000000,700.000000) scale(0.100000,-0.100000)"
fill="#000000" stroke="none">
<path d="M3280 6994 c-19 -2 -84 -9 -145 -14 -578 -56 -1180 -283 -1660 -625
-237 -169 -531 -446 -709 -670 -416 -521 -673 -1147 -748 -1820 -17 -155 -17
-575 0 -730 52 -469 198 -931 418 -1327 290 -523 731 -983 1239 -1294 439
-269 920 -432 1460 -496 145 -17 576 -17 730 0 822 91 1556 447 2131 1034 203
206 348 390 487 618 274 449 433 916 499 1465 16 136 16 592 0 730 -86 725
-352 1347 -803 1885 -122 145 -351 370 -494 484 -510 407 -1117 661 -1775 742
-117 15 -553 27 -630 18z m298 -1994 c328 -51 516 -183 641 -452 144 -308 104
-628 -107 -859 l-51 -55 50 -18 c113 -41 248 -152 325 -267 94 -142 135 -281
135 -463 0 -252 -67 -412 -246 -591 -140 -140 -242 -196 -433 -237 -89 -19
-138 -21 -594 -25 l-498 -4 0 1497 0 1497 353 -6 c193 -3 385 -11 425 -17z"/>
<path d="M3250 4165 l0 -435 89 0 c243 0 387 53 468 174 39 57 50 94 65 206
19 146 -20 283 -104 369 -87 87 -194 121 -390 121 l-128 0 0 -435z"/>
<path d="M3250 2900 l0 -452 228 5 c249 5 333 19 433 73 62 34 139 115 173
182 58 114 58 270 0 384 -34 67 -117 154 -176 184 -109 55 -176 66 -425 71
l-233 5 0 -452z"/>
</g>
</svg>
