<?xml version="1.0" encoding="UTF-8"?>
<svg width="364px" height="364px" viewBox="0 0 364 364" version="1.1" xmlns="http://www.w3.org/2000/svg" xmlns:xlink="http://www.w3.org/1999/xlink">
    <title>BASISmusic_dot</title>
    <g id="BASISmusic_dot" stroke="none" stroke-width="1" fill="none" fill-rule="evenodd">
        <circle id="Oval" fill="#111111" cx="182" cy="182" r="182"></circle>
        <path d="M64.4,207 C74.08,207 83.12,203.4 83.12,193.24 C83.12,188.68 80.96,185.32 76.32,183.16 C79.68,181.08 81.76,177.96 81.76,173.48 C81.76,164.12 73.76,160.68 63.68,160.68 L52.16,160.68 C49.68,160.68 47.68,162.36 47.68,165.4 L47.68,202.28 C47.68,205.32 49.68,207 52.16,207 L64.4,207 Z M64.24,180.2 L56.56,180.2 L56.56,168.36 L64.48,168.36 C69.52,168.36 72.56,170.28 72.56,174.28 C72.56,178.28 69.28,180.2 64.24,180.2 Z M65.2,199.32 L56.56,199.32 L56.56,187.08 L65.12,187.08 C70.96,187.08 74.08,188.92 74.08,193.08 C74.08,197.4 70.8,199.32 65.2,199.32 Z M134.72,208.12 C137.2,208.12 139.12,206.44 139.12,203.32 L139.12,177.48 C139.12,166.2 132.72,159.56 122,159.56 C111.36,159.56 104.88,166.2 104.88,177.48 L104.88,203.32 C104.88,206.44 106.88,208.12 109.36,208.12 C111.84,208.12 113.76,206.44 113.76,203.32 L113.76,192.6 L130.24,192.6 L130.24,203.32 C130.24,206.44 132.24,208.12 134.72,208.12 Z M130.24,184.6 L113.76,184.6 L113.76,179.16 C113.76,172.04 115.76,167.72 122,167.72 C128.4,167.72 130.24,172.04 130.24,179.16 L130.24,184.6 Z M179.6,208.12 C189.52,208.12 198.64,203.48 198.64,193.24 C198.64,184.12 191.04,181.4 180.88,179.08 C175.84,177.96 171.36,176.76 171.36,172.92 C171.36,169.8 174.32,167.8 179.28,167.8 C182.88,167.8 185.76,168.84 188.8,170.76 C190.08,171.64 191.28,172.28 192.8,172.28 C194.96,172.28 196.72,170.68 196.72,168.2 C196.72,165.8 195.12,164.36 192.56,162.92 C189.44,160.92 184.8,159.56 179.76,159.56 C170.32,159.56 161.84,164.12 161.84,173.32 C161.84,182.2 169.36,185.64 178.72,187.64 C185.04,189 189.2,190.28 189.2,194.04 C189.2,197.72 185.28,199.8 180.08,199.8 C176.16,199.8 172.8,198.6 170.08,196.76 C168.56,195.64 167.36,194.76 165.6,194.76 C163.28,194.76 161.36,196.52 161.36,198.92 C161.36,201.48 163.28,203.16 165.76,204.6 C169.36,206.68 174.08,208.12 179.6,208.12 Z M250.16,207 C253.44,207 255.28,205.48 255.28,202.84 C255.28,200.36 253.6,198.68 250.16,198.68 C248.16,198.68 244.56,198.92 242.4,199 L242.4,168.68 C244.56,168.76 248.16,169 250.16,169 C253.6,169 255.28,167.4 255.28,164.84 C255.28,162.2 253.44,160.68 250.16,160.68 L225.76,160.68 C222.48,160.68 220.64,162.2 220.64,164.84 C220.64,167.4 222.32,169 225.76,169 C227.76,169 231.36,168.76 233.52,168.68 L233.52,199 C231.36,198.92 227.76,198.68 225.76,198.68 C222.32,198.68 220.64,200.36 220.64,202.84 C220.64,205.48 222.48,207 225.76,207 L250.16,207 Z M295.6,208.12 C305.52,208.12 314.64,203.48 314.64,193.24 C314.64,184.12 307.04,181.4 296.88,179.08 C291.84,177.96 287.36,176.76 287.36,172.92 C287.36,169.8 290.32,167.8 295.28,167.8 C298.88,167.8 301.76,168.84 304.8,170.76 C306.08,171.64 307.28,172.28 308.8,172.28 C310.96,172.28 312.72,170.68 312.72,168.2 C312.72,165.8 311.12,164.36 308.56,162.92 C305.44,160.92 300.8,159.56 295.76,159.56 C286.32,159.56 277.84,164.12 277.84,173.32 C277.84,182.2 285.36,185.64 294.72,187.64 C301.04,189 305.2,190.28 305.2,194.04 C305.2,197.72 301.28,199.8 296.08,199.8 C292.16,199.8 288.8,198.6 286.08,196.76 C284.56,195.64 283.36,194.76 281.6,194.76 C279.28,194.76 277.36,196.52 277.36,198.92 C277.36,201.48 279.28,203.16 281.76,204.6 C285.36,206.68 290.08,208.12 295.6,208.12 Z" id="BASIS" fill="#FFFFFF" fill-rule="nonzero"></path>
    </g>
</svg>