<?xml version="1.0" encoding="UTF-8"?>
<svg width="525px" height="55px" viewBox="0 0 525 55" version="1.1" xmlns="http://www.w3.org/2000/svg" xmlns:xlink="http://www.w3.org/1999/xlink">
    <title>BasisMusic</title>
    <g id="BasisMusic" stroke="none" stroke-width="1" fill="none" fill-rule="evenodd">
        <path d="M17.4,52 C27.08,52 36.12,48.4 36.12,38.24 C36.12,33.68 33.96,30.32 29.32,28.16 C32.68,26.08 34.76,22.96 34.76,18.48 C34.76,9.12 26.76,5.68 16.68,5.68 L5.16,5.68 C2.68,5.68 0.68,7.36 0.68,10.4 L0.68,47.28 C0.68,50.32 2.68,52 5.16,52 L17.4,52 Z M17.24,25.2 L9.56,25.2 L9.56,13.36 L17.48,13.36 C22.52,13.36 25.56,15.28 25.56,19.28 C25.56,23.28 22.28,25.2 17.24,25.2 Z M18.2,44.32 L9.56,44.32 L9.56,32.08 L18.12,32.08 C23.96,32.08 27.08,33.92 27.08,38.08 C27.08,42.4 23.8,44.32 18.2,44.32 Z M87.72,53.12 C90.2,53.12 92.12,51.44 92.12,48.32 L92.12,22.48 C92.12,11.2 85.72,4.56 75,4.56 C64.36,4.56 57.88,11.2 57.88,22.48 L57.88,48.32 C57.88,51.44 59.88,53.12 62.36,53.12 C64.84,53.12 66.76,51.44 66.76,48.32 L66.76,37.6 L83.24,37.6 L83.24,48.32 C83.24,51.44 85.24,53.12 87.72,53.12 Z M83.24,29.6 L66.76,29.6 L66.76,24.16 C66.76,17.04 68.76,12.72 75,12.72 C81.4,12.72 83.24,17.04 83.24,24.16 L83.24,29.6 Z M132.6,53.12 C142.52,53.12 151.64,48.48 151.64,38.24 C151.64,29.12 144.04,26.4 133.88,24.08 C128.84,22.96 124.36,21.76 124.36,17.92 C124.36,14.8 127.32,12.8 132.28,12.8 C135.88,12.8 138.76,13.84 141.8,15.76 C143.08,16.64 144.28,17.28 145.8,17.28 C147.96,17.28 149.72,15.68 149.72,13.2 C149.72,10.8 148.12,9.36 145.56,7.92 C142.44,5.92 137.8,4.56 132.76,4.56 C123.32,4.56 114.84,9.12 114.84,18.32 C114.84,27.2 122.36,30.64 131.72,32.64 C138.04,34 142.2,35.28 142.2,39.04 C142.2,42.72 138.28,44.8 133.08,44.8 C129.16,44.8 125.8,43.6 123.08,41.76 C121.56,40.64 120.36,39.76 118.6,39.76 C116.28,39.76 114.36,41.52 114.36,43.92 C114.36,46.48 116.28,48.16 118.76,49.6 C122.36,51.68 127.08,53.12 132.6,53.12 Z M203.16,52 C206.44,52 208.28,50.48 208.28,47.84 C208.28,45.36 206.6,43.68 203.16,43.68 C201.16,43.68 197.56,43.92 195.4,44 L195.4,13.68 C197.56,13.76 201.16,14 203.16,14 C206.6,14 208.28,12.4 208.28,9.84 C208.28,7.2 206.44,5.68 203.16,5.68 L178.76,5.68 C175.48,5.68 173.64,7.2 173.64,9.84 C173.64,12.4 175.32,14 178.76,14 C180.76,14 184.36,13.76 186.52,13.68 L186.52,44 C184.36,43.92 180.76,43.68 178.76,43.68 C175.32,43.68 173.64,45.36 173.64,47.84 C173.64,50.48 175.48,52 178.76,52 L203.16,52 Z M248.6,53.12 C258.52,53.12 267.64,48.48 267.64,38.24 C267.64,29.12 260.04,26.4 249.88,24.08 C244.84,22.96 240.36,21.76 240.36,17.92 C240.36,14.8 243.32,12.8 248.28,12.8 C251.88,12.8 254.76,13.84 257.8,15.76 C259.08,16.64 260.28,17.28 261.8,17.28 C263.96,17.28 265.72,15.68 265.72,13.2 C265.72,10.8 264.12,9.36 261.56,7.92 C258.44,5.92 253.8,4.56 248.76,4.56 C239.32,4.56 230.84,9.12 230.84,18.32 C230.84,27.2 238.36,30.64 247.72,32.64 C254.04,34 258.2,35.28 258.2,39.04 C258.2,42.72 254.28,44.8 249.08,44.8 C245.16,44.8 241.8,43.6 239.08,41.76 C237.56,40.64 236.36,39.76 234.6,39.76 C232.28,39.76 230.36,41.52 230.36,43.92 C230.36,46.48 232.28,48.16 234.76,49.6 C238.36,51.68 243.08,53.12 248.6,53.12 Z" id="BASIS" fill="#111111" fill-rule="nonzero"></path>
        <path d="M331.8,52.88 C333.64,52.88 334.84,51.68 334.84,49.6 L334.84,29.28 C334.84,21.28 331.56,16.8 324.68,16.8 C320.84,16.8 318.36,18.4 316.52,21.04 C315,18.32 312.12,16.8 308.6,16.8 C305.16,16.8 302.76,18.08 301.08,20.4 L301.08,20.08 C301.08,17.92 299.72,16.8 298.2,16.8 C296.36,16.8 295.16,17.92 295.16,20.08 L295.16,49.6 C295.16,51.68 296.36,52.88 298.12,52.88 C299.96,52.88 301.16,51.68 301.16,49.6 L301.16,29.28 C301.16,25.28 302.84,22.56 306.6,22.56 C310.36,22.56 312.04,25.28 312.04,29.28 L312.04,49.6 C312.04,51.68 313.24,52.88 315,52.88 C316.76,52.88 317.96,51.68 317.96,49.6 L317.96,29.28 C317.96,25.28 319.56,22.56 323.4,22.56 C327.32,22.56 328.84,25.2 328.84,29.76 L328.84,49.6 C328.84,51.68 330.12,52.88 331.8,52.88 Z M374.76,52.88 C376.68,52.88 377.88,51.6 377.88,49.44 L377.88,20.24 C377.88,18 376.52,16.8 374.68,16.8 C372.76,16.8 371.48,18 371.48,20.24 L371.48,36.88 C371.48,44.16 367.4,47.04 362.84,47.04 C357.4,47.04 353.8,44.56 353.8,36.8 L353.8,20.24 C353.8,18 352.44,16.8 350.6,16.8 C348.68,16.8 347.4,18 347.4,20.24 L347.4,38.56 C347.4,47.92 352.76,52.88 361.08,52.88 C365.4,52.88 369.24,51.28 371.56,48.48 L371.56,49.44 C371.56,51.6 373.08,52.88 374.76,52.88 Z M411.8,52.88 C421.4,52.88 428.04,49.28 428.04,42 C428.04,35.04 422.44,32.96 412.2,31.6 C405.72,30.72 401.72,29.76 401.72,26.72 C401.72,23.92 404.76,22.24 410.12,22.24 C413.72,22.24 416.84,23.12 419.88,24.64 C420.84,25.12 421.88,25.52 423.08,25.52 C424.68,25.52 425.88,24.24 425.88,22.64 C425.88,21.2 425.24,20.32 423.56,19.52 C420.12,17.84 415.32,16.8 410.76,16.8 C402.68,16.8 395.48,19.52 395.48,26.96 C395.48,33.92 402.04,36.08 410.84,37.28 C418.68,38.32 421.8,39.28 421.8,42.4 C421.8,45.12 419,47.36 412.2,47.36 C407.64,47.36 403.8,46.08 401.16,44.64 C399.64,43.76 398.6,43.04 397.16,43.04 C395.56,43.04 394.28,44.24 394.28,45.92 C394.28,51.28 408.2,52.88 411.8,52.88 Z M460.52,10.64 C463.88,10.64 466.28,8.72 466.28,5.6 C466.28,2.48 463.88,0.56 460.52,0.56 C457.16,0.56 454.76,2.48 454.76,5.6 C454.76,8.72 457.16,10.64 460.52,10.64 Z M473,52 C475.24,52 476.44,50.88 476.44,49.04 C476.44,47.28 475.24,46.16 472.92,46.16 C470.92,46.16 465.96,46.4 463.96,46.48 L463.96,20.88 C463.96,18.88 462.76,17.68 460.68,17.68 L445.96,17.68 C443.8,17.68 442.52,18.8 442.52,20.56 C442.52,22.32 443.72,23.52 446.04,23.52 C447.56,23.52 454.36,23.28 457.56,23.12 L457.56,46.48 C454.04,46.4 447.4,46.16 445.32,46.16 C442.92,46.16 441.72,47.28 441.72,49.04 C441.72,50.88 443,52 445.24,52 L473,52 Z M507.48,52.88 C512.44,52.88 517.32,51.04 521.16,48.32 C522.84,47.2 523.88,46.16 523.88,44.4 C523.88,42.72 522.52,41.52 521,41.52 C519.64,41.52 518.76,42 517.48,43.12 C514.44,45.68 511.16,47.04 507.48,47.04 C501.16,47.04 495.56,42.32 495.56,34.8 C495.56,27.36 501.16,22.56 507.48,22.56 C511.16,22.56 514.44,24 517.48,26.56 C518.76,27.6 519.64,28.16 521,28.16 C522.52,28.16 523.88,26.88 523.88,25.28 C523.88,23.52 522.84,22.48 521.16,21.36 C517.24,18.64 512.44,16.8 507.48,16.8 C496.92,16.8 488.92,24.24 488.92,34.8 C488.92,45.36 496.92,52.88 507.48,52.88 Z" id="music" fill="#6D7278" fill-rule="nonzero"></path>
    </g>
</svg>